<svg xmlns="http://www.w3.org/2000/svg" viewBox="0 0 64 64" fill="none">
  <circle cx="32" cy="32" r="31" fill="#0B1B2E" stroke="#47BEFE" stroke-width="2"/>
  <path d="M32 8c-3 4-9 5-9 5s0 7 3 12c2.4 4 6 6 6 6s3.6-2 6-6c3-5 3-12 3-12s-6-1-9-5z" fill="#0F62A8" opacity="0"/>
  <circle cx="27" cy="27" r="12" fill="none" stroke="#F6F7F9" stroke-width="3.4"/>
  <circle cx="27" cy="27" r="12" fill="#0F3D6E"/>
  <path d="M18.6 32.3c1.1-3 2.5-6 3.9-9.4.4-1 .9-1 1.2 0l2.6 8c.1.4.3.4.4 0l1-3c.2-.6.7-.6.9 0l1.1 3.4c.1.3.3.3.4 0 1-2.9 2.3-6.2 3.4-9.1.3-.8 1-.8 1.3 0 1.4 3.6 2.8 6.9 3.9 9.6" stroke="#F6F7F9" stroke-width="1.6" stroke-linecap="round" stroke-linejoin="round" fill="none"/>
  <line x1="35.5" y1="35.5" x2="45" y2="45" stroke="#F6F7F9" stroke-width="4.2" stroke-linecap="round"/>
  <line x1="35.5" y1="35.5" x2="45" y2="45" stroke="#0B1B2E" stroke-width="1.4" stroke-linecap="round"/>
</svg>
